<?xml version="1.0" encoding="utf-8"?>
<!-- Generator: Adobe Illustrator 26.3.0, SVG Export Plug-In . SVG Version: 6.00 Build 0)  -->
<svg version="1.1" id="Layer_1" xmlns="http://www.w3.org/2000/svg" xmlns:xlink="http://www.w3.org/1999/xlink" x="0px" y="0px"
	 viewBox="0 0 500 500" style="enable-background:new 0 0 500 500;" xml:space="preserve">
<style type="text/css">
	.st0{fill-rule:evenodd;clip-rule:evenodd;stroke:#FFFFFF;stroke-width:8;stroke-miterlimit:10;}
	.st1{fill-rule:evenodd;clip-rule:evenodd;}
	.st2{fill-rule:evenodd;clip-rule:evenodd;fill:#FFFFFF;}
</style>
<circle class="st2" cx="250" cy="250" r="248.82"/>
<g>
	<path class="st1" d="M238.75,342.21c-0.99-44.99-0.99-90.97-0.99-135.93c-1.02-8.01-1.02-9.03-10.01-9.03
		c-53.99,1.02-107.94,1.02-161.92,2.01c-2.01,0-3.98,0-6.98,0c0.99-2.01,0.99-2.01,0.99-3c11.99-18.97,23.98-36.99,34.98-54.97
		c3-3.99,5.99-6,11-6c35.97,0,72.96,0,109.95-0.99c3.98,0,5.01,0.99,6.98,4.97c3,5.01,8,10.01,11,16.01
		c1.02-0.99,1.02-2.01,1.02-2.01c0-15.97-1.02-31.98-1.02-47.96c0-5.01-0.99-6-5.99-6c-46.97,0-94.96,0.99-141.93,0.99
		c-3,0-5.01,0.99-5.99,3.98c-8.99,14-17.98,28-28,42c-12.98,19.99-25.99,40.97-38.96,60.97c-2.01,2.01-2.01,3,0,5.01
		c3.98,6,6.98,11.99,9.98,17.98c2.01,3.99,3.98,5.01,8,5.01c56.98-1.02,112.94-1.02,168.9-2.01c4.02,0,5.01,0.99,5.01,5.01
		c0.99,48.98,0.99,98.95,2.01,147.92c0,0.99-1.02,3-1.02,6c-38.96-42.98-76.94-83.96-115.94-125.96c3-3.99,7.02-6.98,10.01-10.97
		c-17.98,0-34.98,0.99-51.98,0.99c-3,0-7.02-0.99-8,3c0,2.01,0.99,5.01,2.01,6.98c10.97,10.02,19.99,21.02,29.97,31.98
		c34.98,38.01,68.97,76.98,103.95,114.95c5.01,5.01,8.99,11,14,16.01l3.98,5.01c11.99,12.97,25,26.97,36.99,39.95l0.99,1.02l8,8
		v-12.02v-0.99c0-0.99,0-0.99,0-2.01C239.73,426.17,238.75,384.17,238.75,342.21z"/>
	<path class="st1" d="M285.72,450.15c1.02,0,1.02,0.99,1.02,0.99c65.94-74.93,131.91-147.92,198.88-221.87
		c-49.97,0.99-98.94,0.99-147.92,1.98C319.71,304.24,302.71,376.21,285.72,450.15z"/>
	<path class="st1" d="M254.72,231.25c-0.99,2.01-0.99,3-0.99,4.02c0,18.97,0.99,38.96,0.99,58.96l-0.99,0.99l0.99,90.97
		c0,3.99,1.02,8.01,1.02,11.99c0,0.99,0,0.99,0,0.99v10.01c0,0.99,0,2.01,0,3c0,19.99,0,40.97,0,60.97c0,0.99,0.99,2.01,0.99,3h1.02
		c19.96-80.96,38.96-162.91,57.97-244.89C294.71,231.25,275.74,231.25,254.72,231.25z"/>
	<path class="st1" d="M398.66,97.32c-41.96,0-82.94,0.99-123.95,0.99c21.02,33.01,42,65.97,64,98.95
		C358.67,164.28,378.67,130.29,398.66,97.32z"/>
	<path class="st1" d="M357.68,205.26l115.94-0.99c5.01,0,8.99,0,15.02,0c-3.03-5.01-6.03-8.99-9.03-13.01l-13.96-19.99l-1.02-0.99
		c-9.98-15.97-19.99-31.98-31-47.96c-3-5.01-5.99-10.02-9.98-16.01l-43.97,65.98C371.68,183.29,364.7,194.25,357.68,205.26z"/>
	<path class="st1" d="M256.73,206.28c17.98,0,34.98,0,53.99,0c0.99,0,3,0,5.01,0c-21.02-33.01-42-64.99-62.98-97.96l-1.02,38.96
		c0,1.02,0,1.02,0,2.01c0,3,0,6,0,8.01v31.98c0,3.99,0,7.97,0,11.99C251.72,205.26,252.75,207.27,256.73,206.28z"/>
</g>
</svg>
