<?xml version="1.0" encoding="utf-8"?>
<!-- Generator: Adobe Illustrator 26.3.0, SVG Export Plug-In . SVG Version: 6.00 Build 0)  -->
<svg version="1.1" id="Layer_1" xmlns="http://www.w3.org/2000/svg" xmlns:xlink="http://www.w3.org/1999/xlink" x="0px" y="0px"
	 viewBox="0 0 500 500" style="enable-background:new 0 0 500 500;" xml:space="preserve">
<style type="text/css">
	.st0{fill-rule:evenodd;clip-rule:evenodd;fill:#FFFFFF;}
	.st1{fill-rule:evenodd;clip-rule:evenodd;}
</style>
<g>
	<path class="st0" d="M486.42,250c0-131.61-105.64-237.25-235.59-237.25c-130,0-237.25,105.64-237.25,237.25
		c0,116.99,86.1,214.49,201.48,232.38V318.27h-60.13V250h60.13v-51.99c0-60.13,34.11-94.23,87.76-94.23
		c25.97,0,53.59,4.87,53.59,4.87v60.13h-30.84c-29.29,0-37.37,17.83-37.37,37.38V250h65l-9.8,68.27h-55.2v164.11
		C400.32,464.49,486.42,366.99,486.42,250z"/>
	<path class="st1" d="M343.4,318.27l9.8-68.27h-65v-43.85c0-19.55,8.08-37.38,37.37-37.38h30.84v-58.52c0,0-27.63-6.48-53.59-6.48
		c-53.65,0-87.76,35.71-87.76,94.23V250h-61.73v68.27h61.73v164.11c11.41,1.61,22.76,4.87,35.77,4.87c12.95,0,24.36-3.27,37.37-4.87
		V318.27H343.4z"/>
</g>
</svg>
