<?xml version="1.0" encoding="utf-8"?>
<!-- Generator: Adobe Illustrator 26.3.0, SVG Export Plug-In . SVG Version: 6.00 Build 0)  -->
<svg version="1.1" id="Layer_1" xmlns="http://www.w3.org/2000/svg" xmlns:xlink="http://www.w3.org/1999/xlink" x="0px" y="0px"
	 viewBox="0 0 500 500" style="enable-background:new 0 0 500 500;" xml:space="preserve">
<style type="text/css">
	.st0{fill-rule:evenodd;clip-rule:evenodd;fill:#FFFFFF;}
	.st1{fill-rule:evenodd;clip-rule:evenodd;}
</style>
<g>
	<path class="st0" d="M250.03,14.38c131.17,0,236.4,105.29,236.4,234.85c0,131.16-105.23,236.4-236.4,236.4
		c-131.17,0-236.45-105.23-236.45-236.4C13.58,119.66,118.86,14.38,250.03,14.38z"/>
	<path class="st1" d="M250.03,127.77c38.85,0,43.7,0,58.27,1.6c14.57,0,22.68,1.6,27.54,4.86c8.11,1.6,12.97,4.85,17.82,9.71
		c4.86,6.51,8.11,11.37,12.97,17.82c1.6,6.45,3.2,14.57,4.86,29.14c0,16.22,0,19.42,0,59.92c0,38.85,0,43.7,0,59.93
		c-1.66,14.57-3.26,21.03-4.86,27.54c-4.86,6.46-8.11,11.31-12.97,16.17c-4.86,4.86-9.71,8.11-17.82,11.37
		c-4.86,1.6-12.97,4.86-27.54,4.86c-14.57,1.6-19.42,1.6-58.27,1.6c-40.5,0-45.36,0-59.93-1.6c-14.57,0-22.68-3.26-27.54-4.86
		c-8.11-3.25-12.97-6.51-17.82-11.37c-4.86-4.86-8.06-9.71-11.31-16.17c-1.66-6.51-3.26-12.97-4.86-27.54c0-16.22,0-21.08,0-59.93
		c0-40.5,0-43.7,0-59.92c1.6-14.57,3.2-22.68,4.86-29.14c3.26-6.46,6.45-11.31,11.31-17.82c4.86-4.86,9.71-8.11,17.82-9.71
		c4.86-3.26,12.97-4.86,27.54-4.86C204.67,127.77,209.53,127.77,250.03,127.77z M250.03,101.84c-40.5,0-45.36,0-61.53,0
		c-16.22,1.6-25.94,3.26-35.65,6.51c-9.71,4.85-17.82,9.71-25.94,17.77c-9.71,8.11-14.57,16.22-17.77,25.93
		c-3.26,9.71-6.51,21.03-6.51,37.25c-1.6,16.17-1.6,21.02-1.6,61.52c0,40.51,0,45.36,1.6,61.53c0,14.57,3.26,25.93,6.51,35.65
		c3.2,9.71,8.05,17.82,17.77,25.88c8.11,8.11,16.22,12.97,25.94,16.22c9.71,4.85,19.42,6.45,35.65,8.11c16.17,0,21.02,0,61.53,0
		c38.85,0,43.7,0,59.93,0c16.17-1.66,27.48-3.26,35.59-8.11c9.71-3.26,19.42-8.11,29.13-16.22c8.11-8.06,12.97-16.17,16.22-25.88
		c3.26-9.71,6.46-21.08,6.46-35.65c1.66-16.17,1.66-21.02,1.66-61.53c0-40.5,0-45.36-1.66-61.52c0-16.22-3.2-27.54-6.46-37.25
		c-3.26-9.71-8.11-17.82-16.22-25.93c-9.71-8.05-19.42-12.91-29.13-17.77c-8.11-3.26-19.42-4.91-35.59-6.51
		C293.73,101.84,288.88,101.84,250.03,101.84z"/>
	<path class="st1" d="M250.03,173.08c-42.1,0-76.15,34.05-76.15,76.15s34.05,77.69,76.15,77.69s76.09-35.59,76.09-77.69
		S292.13,173.08,250.03,173.08z M250.03,297.79c-27.54,0-50.22-21.02-50.22-48.56s22.68-50.22,50.22-50.22
		c25.88,0,50.16,22.68,50.16,50.22S275.91,297.79,250.03,297.79z"/>
	<path class="st1" d="M347.2,169.88c0,11.31-8.11,19.43-19.48,19.43c-9.71,0-17.77-8.11-17.77-19.43c0-9.71,8.05-17.82,17.77-17.82
		C339.09,152.05,347.2,160.17,347.2,169.88z"/>
</g>
</svg>
