<?xml version="1.0" encoding="utf-8"?>
<!-- Generator: Adobe Illustrator 26.3.0, SVG Export Plug-In . SVG Version: 6.00 Build 0)  -->
<svg version="1.1" id="Layer_1" xmlns="http://www.w3.org/2000/svg" xmlns:xlink="http://www.w3.org/1999/xlink" x="0px" y="0px"
	 viewBox="0 0 500 500" style="enable-background:new 0 0 500 500;" xml:space="preserve">
<style type="text/css">
	.st0{fill-rule:evenodd;clip-rule:evenodd;fill:#FFFFFF;}
	.st1{fill-rule:evenodd;clip-rule:evenodd;}
</style>
<g>
	<path class="st0" d="M486.44,249.23c0,131.63-105.61,237.24-235.63,237.24S13.56,380.86,13.56,249.23
		c0-130.03,107.21-235.69,237.24-235.69S486.44,119.2,486.44,249.23z"/>
	<path class="st1" d="M202.07,385.73c113.75,0,178.76-94.25,178.76-177.16c0-3.26,0-6.48,0-8.14c13.01-9.75,22.76-19.49,30.84-32.51
		c-11.35,4.87-22.7,8.14-35.72,9.75c13.01-8.08,22.76-19.49,27.63-35.72c-11.41,8.14-26.03,13.01-39.04,16.23
		c-11.35-11.35-27.58-21.1-47.13-21.1c-35.72,0-63.35,29.24-63.35,63.35c0,4.87,0,9.75,1.61,14.62
		c-52-1.61-97.52-27.63-128.37-64.96c-6.54,9.75-9.75,19.49-9.75,30.84c0,22.76,11.35,40.65,29.24,52
		c-11.35,0-21.16-3.21-29.24-8.14c0,1.66,0,1.66,0,1.66c0,30.85,21.1,55.27,50.34,61.75c-4.87,1.61-11.35,1.61-16.23,1.61
		c-4.87,0-8.14,0-11.35-1.61c8.08,26.03,30.85,43.86,58.48,43.86c-22.76,16.28-48.73,27.63-78.03,27.63
		c-4.87,0-9.75-1.61-14.62-1.61C133.79,375.99,166.3,385.73,202.07,385.73z"/>
</g>
</svg>
