<?xml version="1.0" encoding="utf-8"?>
<!-- Generator: Adobe Illustrator 26.3.0, SVG Export Plug-In . SVG Version: 6.00 Build 0)  -->
<svg version="1.1" id="Layer_1" xmlns="http://www.w3.org/2000/svg" xmlns:xlink="http://www.w3.org/1999/xlink" x="0px" y="0px"
	 viewBox="0 0 878.19 432.56" style="enable-background:new 0 0 878.19 432.56;" xml:space="preserve">
<style type="text/css">
	.st0{fill-rule:evenodd;clip-rule:evenodd;fill:#FFFFFF;}
</style>
<g>
	<path class="st0" d="M110.95,316.64c0.47,27.05-19.24,45.83-51.78,46.29c-17.41,0-31.15-9.15-41.24-9.15
		c-5.5,0-7.79,4.12-9.17,8.24H7.83l-0.45-51.33H8.3c5.95,26.13,21.08,51.33,50.86,50.86c22.46,0,36.67-11.92,36.22-34.83
		c0-22-20.18-28.41-45.38-40.32c-27.95-12.84-40.32-23.38-40.79-46.29c0-23.38,19.71-40.79,44.91-41.26
		c18.33,0,24.75,9.17,32.55,9.17c5.5,0,6.87-2.28,8.25-6.4h0.92l0.45,39.87h-0.91c-5.97-25.2-18.8-41.71-41.26-41.26
		c-21.07,0-31.15,13.31-31.15,27.5c0,12.38,5.95,23.83,35.75,36.22C101.33,281.81,110.49,295.1,110.95,316.64z"/>
	<path class="st0" d="M238.36,309.32l0.45,49.49l-113.66,0.92v-0.92h18.79l-1.37-157.18h-18.79v-1.39l105.86-0.91v39.87l-0.92,0.45
		c-1.83-23.36-12.82-38.95-36.65-38.49h-29.8l0.47,73.34h12.37c22-0.47,28.88-12.38,29.78-33h0.92l0.92,66h-1.37
		c-0.92-19.71-8.25-32.09-30.25-32.09l-12.37,0.47l0.91,82.49l38.04-0.45c23.83,0,34.82-22.01,35.75-48.58H238.36z"/>
	<polygon class="st0" points="458.34,198.4 445.05,198.4 396.93,358.8 395.56,358.8 357.05,242.87 322.22,359.27 320.85,359.27 
		266.77,200.23 247.98,200.23 247.98,199.33 305.73,198.86 305.73,199.78 286.93,199.78 330.02,329.02 356.6,241.02 342.39,199.33 
		325.44,199.78 325.44,198.4 378.6,197.95 378.6,199.33 362.09,199.33 405.18,328.1 444.13,198.4 428.54,198.4 428.54,197.48 
		458.34,197.03 	"/>
	<path class="st0" d="M579.32,306.11l0.92,49.49l-113.66,0.92v-0.92l18.33-0.45l-1.37-157.2l-18.79,0.45v-1.37l105.86-0.92
		l0.45,39.87h-0.91c-2.3-22.91-13.29-38.49-37.59-38.49l-29.33,0.47l0.92,73.32h12.37c21.54-0.45,28.88-12.84,29.33-33h1.37l0.47,66
		h-0.92c-1.37-20.16-8.71-32.08-30.25-32.08h-12.37l0.91,82.96l37.59-0.47c23.83,0,34.82-21.99,35.75-48.57H579.32z"/>
	<path class="st0" d="M710.41,304.72l0.45,49.51l-113.66,0.92v-0.92l18.79-0.45l-1.83-157.2l-18.79,0.45v-1.37l57.73-0.45v1.38
		h-18.79l1.37,157.2l37.59-0.47c23.83,0,34.82-21.99,36.2-48.58H710.41z"/>
	<path class="st0" d="M870.8,272.65c0.45,43.09-27.95,82.5-71.04,82.96c-43.07,0.45-72.41-38.49-72.87-81.58
		c-0.45-43.54,27.95-82.03,71.49-82.49C841.01,191.08,870.34,229.11,870.8,272.65z M849.72,272.65c0-32.53-10.54-80.19-51.33-79.74
		c-40.79,0-50.41,48.12-50.41,81.11c0.45,32.55,10.99,80.66,51.78,80.66C840.56,354.23,850.17,305.64,849.72,272.65z"/>
	<path class="st0" d="M431.76,115.92c-0.45-20.63-0.45-41.71-0.45-62.33c-0.47-3.67-0.47-4.14-4.59-4.14
		c-24.75,0.47-49.49,0.47-74.24,0.92c-0.92,0-1.83,0-3.2,0c0.45-0.92,0.45-0.92,0.45-1.37c5.5-8.7,10.99-16.96,16.04-25.2
		c1.37-1.83,2.75-2.75,5.04-2.75c16.49,0,33.45,0,50.41-0.45c1.83,0,2.3,0.45,3.2,2.28c1.37,2.3,3.67,4.59,5.04,7.34
		c0.47-0.45,0.47-0.92,0.47-0.92c0-7.32-0.47-14.66-0.47-21.99c0-2.3-0.45-2.75-2.75-2.75c-21.54,0-43.54,0.45-65.07,0.45
		c-1.37,0-2.3,0.45-2.75,1.83c-4.12,6.42-8.25,12.84-12.84,19.26c-5.95,9.17-11.92,18.79-17.87,27.95c-0.92,0.92-0.92,1.37,0,2.3
		c1.83,2.75,3.2,5.5,4.58,8.25c0.92,1.83,1.83,2.3,3.67,2.3c26.13-0.47,51.78-0.47,77.44-0.92c1.84,0,2.3,0.45,2.3,2.3
		c0.45,22.46,0.45,45.37,0.92,67.82c0,0.45-0.47,1.38-0.47,2.75c-17.87-19.71-35.28-38.49-53.16-57.75c1.37-1.83,3.22-3.2,4.59-5.03
		c-8.25,0-16.04,0.45-23.83,0.45c-1.37,0-3.22-0.45-3.67,1.37c0,0.92,0.45,2.3,0.92,3.2c5.03,4.59,9.17,9.64,13.74,14.66
		c16.04,17.43,31.62,35.29,47.66,52.71c2.3,2.3,4.12,5.04,6.42,7.34l1.83,2.3c5.5,5.95,11.46,12.37,16.96,18.32l0.45,0.47l3.67,3.67
		v-5.51v-0.45c0-0.45,0-0.45,0-0.92C432.21,154.41,431.76,135.16,431.76,115.92z"/>
	<path class="st0" d="M453.29,165.41c0.47,0,0.47,0.45,0.47,0.45C484,131.5,514.25,98.04,544.95,64.13
		c-22.91,0.45-45.37,0.45-67.82,0.91C468.88,98.51,461.09,131.5,453.29,165.41z"/>
	<path class="st0" d="M439.08,65.04c-0.45,0.92-0.45,1.37-0.45,1.84c0,8.7,0.45,17.86,0.45,27.03l-0.45,0.45l0.45,41.71
		c0,1.83,0.47,3.67,0.47,5.5c0,0.45,0,0.45,0,0.45v4.59c0,0.45,0,0.92,0,1.38c0,9.17,0,18.79,0,27.95c0,0.45,0.45,0.92,0.45,1.37
		h0.47c9.15-37.12,17.87-74.69,26.58-112.28C457.42,65.04,448.72,65.04,439.08,65.04z"/>
	<path class="st0" d="M505.08,3.63c-19.24,0-38.03,0.45-56.83,0.45c9.64,15.13,19.26,30.25,29.34,45.37
		C486.75,34.34,495.91,18.75,505.08,3.63z"/>
	<path class="st0" d="M486.29,53.12l53.16-0.45c2.3,0,4.12,0,6.89,0c-1.39-2.3-2.76-4.12-4.14-5.97l-6.4-9.17l-0.47-0.45
		c-4.58-7.32-9.17-14.66-14.21-21.99c-1.37-2.3-2.75-4.59-4.58-7.34l-20.16,30.25C492.71,43.05,489.51,48.08,486.29,53.12z"/>
	<path class="st0" d="M440.01,53.59c8.25,0,16.04,0,24.75,0c0.45,0,1.37,0,2.3,0c-9.64-15.13-19.26-29.8-28.88-44.91l-0.47,17.86
		c0,0.47,0,0.47,0,0.92c0,1.38,0,2.75,0,3.67V45.8c0,1.83,0,3.66,0,5.5C437.71,53.12,438.18,54.05,440.01,53.59z"/>
	<path class="st0" d="M779.6,181.92c-0.45,0.9-0.92,1.37-1.37,1.83c0,0-0.92,0.45-1.37,0.92c-0.47,0-0.92,0.45-1.84,0.45
		c-0.45,0-1.83,0-2.75,0c-1.83,0-3.2,0-3.65-0.45c-0.92,0-1.84-0.47-1.84-0.92c-0.45-0.45-0.45-0.92,0-1.83
		c0-0.92,0.47-1.38,1.37-2.75l20.16-27.97c0.47-0.45,0.92-0.91,1.39-1.38c0.45,0,0.91-0.45,1.37-0.45c0.91-0.45,1.37-0.45,2.28-0.45
		c0.92-0.47,2.3-0.47,3.67-0.47c0.92,0,1.83,0,2.75,0.47c0.92,0,1.37,0,1.84,0c0.91,0.45,1.37,0.9,1.83,0.9
		c0.45,0.47,0.45,0.92,0.92,1.38l20.16,27.5c0.92,0.92,1.37,1.84,1.83,2.75c0,0.47,0,1.37,0,1.84c-0.45,0.45-0.91,0.91-1.83,0.91
		c-0.92,0.47-1.84,0.47-3.67,0.47c-0.92,0-1.83,0-2.75,0c-0.45,0-1.37-0.47-1.83-0.47c-0.47-0.45-0.92-0.45-1.37-0.91
		c-0.47-0.47-0.47-0.92-0.92-1.37l-17.41-23.38L779.6,181.92z"/>
	<polygon class="st0" points="396.93,357.43 389.14,345.98 436.34,197.95 449.62,197.48 	"/>
	<polygon class="st0" points="321.77,357.9 316.28,344.61 358.42,201.15 366.69,214.44 	"/>
	<path class="st0" d="M347.43,414.26h-10.07v14.66h-2.76l-0.45-38.49h13.76c8.7-0.45,14.66,4.12,15.12,11.46
		C363.02,409.68,355.68,413.8,347.43,414.26z M359.81,401.89c0-5.97-5.04-9.17-11.92-9.17h-10.54v18.79h10.54
		C354.77,411.51,359.81,407.84,359.81,401.89z"/>
	<path class="st0" d="M416.63,428.02l-5.03-11.01h-22l-5.04,11.46h-2.75l17.41-38.95h2.75l18.33,38.49H416.63z M400.59,392.72
		l-10.07,22l20.16-0.47L400.59,392.72z"/>
	<path class="st0" d="M470.25,427.55l-11.92-16.04h-13.29l0.45,16.04h-2.75l-0.45-38.03l16.49-0.47c8.26,0,13.29,4.59,13.76,10.54
		v0.47c0,6.4-5.04,10.07-11.46,10.99l12.84,16.49H470.25z M469.33,400.06c0-5.04-4.12-8.26-10.99-8.26h-13.29v16.96h13.29
		C464.76,408.76,469.8,405.56,469.33,400.06z"/>
	<polygon class="st0" points="494.09,427.09 493.63,388.6 496.83,388.6 497.29,427.09 	"/>
	<path class="st0" d="M533.03,427.55c-6.4,0-10.99-1.83-15.57-5.95l1.83-2.3c4.12,3.67,8.25,5.5,13.74,5.5
		c5.97,0,10.09-3.2,10.09-7.79c0-4.12-2.3-6.42-11.46-7.79c-9.15-1.83-12.82-5.03-12.82-10.99v-0.45c0-5.5,5.04-9.62,11.92-10.09
		c5.5,0,9.62,1.84,13.74,4.59l-1.83,2.28c-3.67-3.2-7.79-4.12-11.92-4.12c-5.5,0-9.17,3.22-9.17,7.34c0,4.57,2.3,6.87,10.99,8.7
		c9.62,1.84,13.29,5.04,13.29,10.54C545.87,422.97,540.83,427.55,533.03,427.55z"/>
</g>
</svg>
