<?xml version="1.0" encoding="utf-8"?>
<!-- Generator: Adobe Illustrator 26.3.0, SVG Export Plug-In . SVG Version: 6.00 Build 0)  -->
<svg version="1.1" id="Layer_1" xmlns="http://www.w3.org/2000/svg" xmlns:xlink="http://www.w3.org/1999/xlink" x="0px" y="0px"
	 viewBox="0 0 500 500" style="enable-background:new 0 0 500 500;" xml:space="preserve">
<style type="text/css">
	.st0{fill-rule:evenodd;clip-rule:evenodd;fill:#FFFFFF;}
	.st1{fill-rule:evenodd;clip-rule:evenodd;}
</style>
<g>
	<path class="st0" d="M485.09,249.23c0,130.88-105,235.89-235.89,235.89c-129.29,0-234.29-105.01-234.29-235.89
		c0-129.29,105-234.35,234.29-234.35C380.09,14.88,485.09,119.94,485.09,249.23z"/>
	<path class="st1" d="M401.06,173.24c-3.19-12.88-16.13-24.23-29.07-27.48c-24.23-6.44-122.79-6.44-122.79-6.44
		s-96.97,0-121.19,6.44c-14.54,3.25-24.23,14.59-27.48,27.48c-6.44,24.28-6.44,75.99-6.44,75.99s0,50.05,6.44,75.93
		c3.25,14.54,12.94,24.23,27.48,29.07c24.23,6.5,121.19,6.5,121.19,6.5s98.56,0,122.79-6.5c12.94-4.85,25.88-14.54,29.07-29.07
		c6.5-25.88,6.5-75.93,6.5-75.93S407.56,197.53,401.06,173.24z M218.48,296.09v-93.72l80.83,46.86L218.48,296.09z"/>
</g>
</svg>
